
        <svg xmlns="http://www.w3.org/2000/svg" xmlns:xlink="http://www.w3.org/1999/xlink" version="1.1" width="3188.0710880818447" 
        height="613.6864572676176" viewBox="0 0 3188.0710880818447 613.6864572676176">
			
			<g transform="scale(9.403554404092247) translate(10, 10)">
				<defs id="SvgjsDefs2691"></defs><g id="SvgjsG2692" featureKey="nameLeftFeature-0" transform="matrix(2.8976383209228516,0,0,2.8976383209228516,0.2897649406339003,-13.387088857985274)" fill="#235784"><path d="M7.7 4.619999999999999 c2.1 0 4.06 0.82 5.52 2.28 c0.24 0.24 0.24 0.62 0 0.86 c-0.22 0.24 -0.62 0.24 -0.84 0 c-1.26 -1.24 -2.9 -1.92 -4.68 -1.94 c-3.62 0 -6.6 2.98 -6.6 6.6 c0 3.64 2.98 6.62 6.6 6.62 c1.78 0 3.44 -0.7 4.68 -1.94 c0.14 -0.14 0.08 -0.3 0 -0.38 c-0.1 -0.1 -0.26 -0.12 -0.38 0 c-1.16 1.16 -2.68 1.76 -4.3 1.76 c-3.34 0 -6.04 -2.7 -6.04 -6.06 c0 -1.6 0.62 -3.12 1.76 -4.28 c0.24 -0.22 0.62 -0.22 0.86 0 c0.24 0.24 0.24 0.62 0 0.86 c-0.92 0.92 -1.42 2.14 -1.42 3.42 c0 2.68 2.18 4.86 4.84 4.86 c1.3 0 2.52 -0.5 3.44 -1.42 c0.62 -0.62 1.5 -0.6 2.1 0 c0.64 0.64 0.62 1.48 0 2.1 c-1.48 1.48 -3.44 2.28 -5.54 2.28 c-4.3 0 -7.8 -3.5 -7.8 -7.82 c0 -4.3 3.5 -7.8 7.8 -7.8 z M23.26 4.880000000000001 c1.46 0 2.76 0.9 3.28 2.26 l5.02 12.02 c0.14 0.32 -0.02 0.66 -0.32 0.8 c-0.32 0.12 -0.68 -0.02 -0.8 -0.34 l-5.06 -12.1 c-0.36 -0.86 -1.2 -1.42 -2.12 -1.42 c-0.94 0 -1.76 0.56 -2.12 1.42 l-4.56 10.9 c-0.06 0.14 -0.02 0.3 0.12 0.36 s0.28 0 0.34 -0.16 l4.56 -10.88 c0.28 -0.66 0.94 -1.08 1.66 -1.08 s1.38 0.42 1.66 1.1 l2.36 5.62 c0.22 0.52 -0.1 0.84 -0.58 0.84 l-4.8 0 c-0.34 0 -0.62 -0.28 -0.62 -0.62 s0.28 -0.6 0.62 -0.6 l3.9 0 l-2 -4.76 c-0.08 -0.22 -0.28 -0.38 -0.54 -0.38 s-0.46 0.16 -0.54 0.38 l-4.56 10.84 c-0.3 0.76 -1.16 1.12 -1.92 0.82 c-0.76 -0.32 -1.12 -1.18 -0.82 -1.92 l4.56 -10.84 c0.52 -1.36 1.82 -2.26 3.28 -2.26 z M33.82 4.880000000000001 l7.28 0 c2.48 0.02 4.48 2.06 4.48 4.54 c0 2.32 -1.78 4.24 -4.04 4.48 l3.62 3.6 c0.54 0.54 0.54 1.54 0 2.08 s-1.48 0.58 -2.04 0.02 c-0.52 -0.54 -2.52 -2.52 -2.52 -2.52 c-0.24 -0.24 -0.24 -0.62 0 -0.86 s0.62 -0.24 0.86 0 l2.48 2.48 c0.1 0.1 0.26 0.12 0.36 0.02 s0.12 -0.24 0 -0.36 l-4.64 -4.62 c-0.12 -0.12 -0.18 -0.26 -0.18 -0.42 c0 -0.34 0.28 -0.62 0.62 -0.62 l0.96 0 c1.82 0 3.32 -1.48 3.32 -3.3 s-1.5 -3.3 -3.32 -3.3 l-6.62 0 l0 3.3 c0 0.34 -0.28 0.6 -0.62 0.6 s-0.6 -0.26 -0.6 -0.6 l0 -3.92 c0 -0.32 0.26 -0.6 0.6 -0.6 z M41.08 6.6 c1.54 0 2.8 1.26 2.8 2.8 s-1.26 2.78 -2.8 2.78 l-3.34 0 c-1.82 0 -3.3 1.48 -3.3 3.3 l0 3.92 c0 0.32 -0.28 0.6 -0.62 0.6 s-0.6 -0.28 -0.6 -0.6 l0 -3.92 c0 -2.5 2.02 -4.52 4.52 -4.52 l3.34 0 c0.88 0 1.58 -0.7 1.58 -1.56 c0 -0.88 -0.7 -1.58 -1.58 -1.58 c-0.34 0 -0.6 -0.26 -0.6 -0.6 s0.26 -0.62 0.6 -0.62 z M54.9 6.380000000000001 c1.62 0 3.14 0.62 4.28 1.76 c1.14 1.16 1.76 2.68 1.76 4.3 c0 0.32 -0.26 0.6 -0.6 0.6 c-0.32 0 -0.6 -0.28 -0.6 -0.6 c0 -1.3 -0.5 -2.52 -1.42 -3.44 c-0.92 -0.9 -2.14 -1.42 -3.42 -1.42 c-1.3 0 -2.52 0.52 -3.44 1.42 c-0.92 0.92 -1.42 2.14 -1.42 3.44 c0 0.8 -0.66 1.48 -1.48 1.48 s-1.48 -0.68 -1.48 -1.48 c0 -2.1 0.82 -4.06 2.28 -5.52 c3.06 -3.06 8 -3.06 11.06 0 c1.48 1.46 2.28 3.42 2.28 5.52 c0 2.08 -0.8 4.04 -2.28 5.52 s-3.44 2.28 -5.52 2.28 c-0.34 0 -0.62 -0.26 -0.62 -0.6 s0.28 -0.6 0.62 -0.6 c1.76 0 3.42 -0.7 4.66 -1.94 s1.94 -2.9 1.94 -4.66 s-0.7 -3.42 -1.94 -4.68 c-2.58 -2.56 -6.76 -2.56 -9.34 0 c-1.24 1.26 -1.92 2.92 -1.92 4.68 c0 0.18 0.1 0.3 0.28 0.3 c0.16 0 0.26 -0.1 0.26 -0.3 c0 -1.62 0.62 -3.14 1.76 -4.3 c1.14 -1.14 2.68 -1.76 4.3 -1.76 z"></path></g><g id="SvgjsG2693" featureKey="nameRightFeature-0" transform="matrix(3.045520067214966,0,0,3.045520067214966,182.95448091463567,-19.04956405225591)" fill="#235784"><path d="M6.22 20 c-1.08 0 -1.86 -0.22 -2.68 -0.66 c-0.8 -0.44 -1.44 -1.06 -1.88 -1.88 c-0.44 -0.8 -0.66 -1.76 -0.66 -2.86 l0 -7.04 c0 -0.14 0.12 -0.24 0.26 -0.24 l2.6 0 c0.14 0 0.24 0.1 0.24 0.24 l0 7.04 c0 0.8 0.22 1.42 0.64 1.86 s0.8 0.66 1.5 0.66 s1.06 -0.22 1.46 -0.64 c0.4 -0.44 0.6 -1.08 0.6 -1.88 l0 -7.04 c0 -0.14 0.12 -0.24 0.26 -0.24 l2.6 0 c0.14 0 0.26 0.1 0.26 0.24 l0 7.04 c0 1.1 -0.22 2.06 -0.66 2.86 c-0.42 0.82 -1.06 1.44 -1.86 1.88 s-1.6 0.66 -2.68 0.66 z M18.759999999999998 20.12 c-0.96 0 -1.92 -0.18 -2.84 -0.54 c-0.92 -0.34 -1.74 -0.84 -2.42 -1.44 c-0.08 -0.08 -0.1 -0.2 -0.06 -0.3 l0.7 -2.38 c0.04 -0.08 0.1 -0.14 0.18 -0.14 c0.08 -0.02 0.16 0 0.22 0.06 c1.06 1 2.26 1.9 3.76 1.98 c0.4 0.02 0.84 0.04 1.22 -0.08 c1.18 -0.38 0.68 -1.58 -0.2 -1.94 c-0.3 -0.12 -0.72 -0.26 -1.26 -0.42 c-0.8 -0.22 -1.46 -0.46 -1.96 -0.7 c-0.54 -0.24 -1 -0.62 -1.4 -1.12 c-0.38 -0.52 -0.58 -1.2 -0.58 -2.02 c0 -0.78 0.2 -1.46 0.6 -2.04 s0.96 -1.04 1.66 -1.34 s1.52 -0.46 2.44 -0.46 c0.82 0 1.62 0.12 2.42 0.38 c0.78 0.24 1.48 0.58 2.1 0.98 c0.1 0.08 0.14 0.2 0.08 0.32 l-0.66 2.24 c-0.02 0.08 -0.08 0.12 -0.16 0.14 c-0.06 0.02 -0.14 0.02 -0.2 -0.02 c-0.9 -0.56 -1.8 -1.24 -2.86 -1.38 c-0.7 -0.1 -1.76 -0.06 -2 0.78 c-0.3 1.08 1.28 1.36 2 1.58 c0.8 0.24 1.46 0.48 1.98 0.72 c0.54 0.26 1.02 0.66 1.4 1.16 c0.4 0.52 0.6 1.22 0.6 2.06 c0 0.82 -0.22 1.52 -0.64 2.12 c-0.4 0.6 -0.98 1.04 -1.7 1.36 c-0.72 0.28 -1.52 0.44 -2.42 0.44 z M25.52 20 l0 -11.98 c0 -0.5 0.1 -0.6 0.26 -0.6 l8.76 0 c0.14 0 0.26 0.1 0.26 0.24 l0 2.26 c0 0.14 -0.12 0.26 -0.26 0.26 l-5.92 0 l0 2.08 l3.74 0 c0.14 0 0.26 0.12 0.26 0.26 l0 2.24 c0 0.14 -0.12 0.26 -0.26 0.26 l-3.74 0 l0 2.14 l5.9 0 c0.14 0 0.26 0.12 0.26 0.26 l0 2.24 c0 0.14 -0.12 0.26 -0.26 0.26 l-8.74 0 c-0.16 0 -0.26 -0.12 -0.26 0.08 z M37.059999999999995 20 c-0.14 0 -0.26 -0.12 -0.26 -0.26 l0 -11.98 c0 -0.14 0.12 -0.26 0.26 -0.26 l2.6 0 c0.14 0 0.26 0.12 0.26 0.26 l0 9.36 l4.5 0 c0.14 0 0.26 0.12 0.26 0.26 l0 2.36 c0 0.14 -0.12 0.26 -0.26 0.26 l-7.36 0 z"></path></g>
			</g>
		</svg>
	